<svg xmlns="http://www.w3.org/2000/svg" width="121" height="125" viewBox="0 0 121 125">
  <g id="Group_158" data-name="Group 158" transform="translate(-1020 -1386)">
    <g id="Group_135" data-name="Group 135" transform="translate(1012.77 1393.406)">
      <g id="Ellipse_18" data-name="Ellipse 18" transform="translate(7.23 -7.406)" fill="none" stroke="#00efc4" stroke-width="3" stroke-dasharray="3 6">
        <circle cx="57.5" cy="57.5" r="57.5" stroke="none"/>
        <circle cx="57.5" cy="57.5" r="56" fill="none"/>
      </g>
      <path id="Path_467" data-name="Path 467" d="M57,0c31.48,0,57,25.744,57,57.5S88.48,115,57,115,0,89.256,0,57.5,25.52,0,57,0Z" transform="translate(14.23 2.594)" fill="#f8f8f8"/>
      <g id="Group_177" data-name="Group 177" transform="translate(-47.438 -350.836)">
        <g id="Group_176" data-name="Group 176" transform="translate(85.669 366.826)">
          <path id="Path_468" data-name="Path 468" d="M171.57,429.185h-.016l-26.955-.374a1.134,1.134,0,0,1,.016-2.267h.015l25.071.348-28.945-56.463-19.046,36.563,11.235,19.953a1.139,1.139,0,0,1-.013,1.136,1.248,1.248,0,0,1-.991.555l-22.05-.3a1.133,1.133,0,0,1-.99-1.657l10.23-19.641-9.238-16.407L87.774,427.461a1.134,1.134,0,0,1-1.944-1.167l23.122-38.506a1.133,1.133,0,0,1,1.96.027l9.469,16.818,19.376-37.2a1.133,1.133,0,0,1,1.006-.61h0a1.135,1.135,0,0,1,1,.617l30.806,60.092a1.133,1.133,0,0,1-1.009,1.651Zm-59.808-3.1,18.239.252-9.542-16.949Z" transform="translate(-85.669 -366.826)" fill="#00efc4"/>
        </g>
      </g>
    </g>
  </g>
</svg>
