<svg xmlns="http://www.w3.org/2000/svg" width="126" height="121" viewBox="0 0 126 121">
  <g id="Group_326" data-name="Group 326" transform="translate(-511 -1394)">
    <g id="Group_178" data-name="Group 178" transform="translate(522.715 1394.406)">
      <g id="Ellipse_43" data-name="Ellipse 43" transform="translate(-11.715 5.594)" fill="none" stroke="#00efc4" stroke-width="3" stroke-dasharray="3 6">
        <circle cx="57.5" cy="57.5" r="57.5" stroke="none"/>
        <circle cx="57.5" cy="57.5" r="56" fill="none"/>
      </g>
      <ellipse id="Ellipse_44" data-name="Ellipse 44" cx="57" cy="57.5" rx="57" ry="57.5" transform="translate(0.285 -0.406)" fill="#f8f8f8"/>
    </g>
    <g id="Group_180" data-name="Group 180" transform="translate(63.181 880.061)">
      <g id="Group_179" data-name="Group 179">
        <path id="Path_469" data-name="Path 469" d="M528.96,598.135h-.185l-2.849-.029a17.66,17.66,0,0,1-6.348-1.245,17.208,17.208,0,0,1-6.371,1.114l-2.85-.029a17.74,17.74,0,0,1-17.537-17.9,1.25,1.25,0,1,1,2.5.026,15.237,15.237,0,0,0,15.062,15.375l2.85.029a14.569,14.569,0,0,0,3.135-.292,17.721,17.721,0,0,1-7.979-14.978l.466-45.233a11.071,11.071,0,0,1,9.706-10.9,10.955,10.955,0,0,1,12.356,7.468,11.944,11.944,0,0,1,.652,3.89l-.461,45.007a17.6,17.6,0,0,1-5.332,12.462,18.057,18.057,0,0,1-2.96,2.347,15.138,15.138,0,0,0,3.137.359l2.848.029h.159a15.237,15.237,0,0,0,15.216-15.064l.461-45.006a1.251,1.251,0,0,1,1.25-1.238h.013a1.25,1.25,0,0,1,1.237,1.263l-.461,45.006A17.741,17.741,0,0,1,528.96,598.135Zm-8.591-71.7a9.708,9.708,0,0,0-1.436.106,8.637,8.637,0,0,0-7.58,8.492l0,.194-.461,45a15.105,15.105,0,0,0,4.363,10.793,15.317,15.317,0,0,0,4.355,3.12,15.3,15.3,0,0,0,4.419-3.031,15.108,15.108,0,0,0,4.582-10.7l.461-45.005a9.46,9.46,0,0,0-.523-3.073A8.275,8.275,0,0,0,520.369,526.437Z" fill="#00efc4"/>
      </g>
    </g>
  </g>
</svg>
