<svg width="20" height="20" viewBox="0 0 20 20" fill="none" xmlns="http://www.w3.org/2000/svg">
<path d="M13.8672 3.4375C14.5595 3.4375 15.1619 3.70527 15.6576 4.2334L16.0563 4.65812L16.1045 4.84445L16.1144 4.88285L16.4062 6.01098V6.48438C16.4062 7.65672 16.1766 8.88781 15.7422 10.0445C15.2856 11.2602 14.6285 12.3571 13.789 13.3048C12.4725 14.7909 10.1027 16.5625 6.28906 16.5625C6.17699 16.5625 6.06512 16.5605 5.95324 16.5567C6.32145 16.3431 6.67531 16.1053 7.01203 15.8443L7.61719 15.3751V14.6094V14.4531V12.8906L6.97344 12.8835C6.26957 12.8757 5.70312 12.3029 5.70312 11.599V10.3214L4.85812 10.1306C4.48426 10.0461 4.21875 9.71398 4.21875 9.3307V8.35938V8.24219L4.19922 7.44574L3.50434 6.9818C3.20426 6.72934 2.9323 6.36875 2.73855 5.97852C4.78891 7.47375 7.22398 8.36852 9.75465 8.51309L11.4062 8.60742V6.95312V6.91406V6.72949L11.3632 6.55C11.314 6.34457 11.2891 6.15164 11.2891 5.97656C11.2891 5.30375 11.5575 4.66844 12.0449 4.18762C12.5353 3.70391 13.1825 3.4375 13.8672 3.4375ZM13.8672 1.875C11.6025 1.875 9.72656 3.70848 9.72656 5.97656C9.72656 6.2993 9.77215 6.61523 9.84375 6.91406V6.95312C6.46848 6.76031 3.41242 5.04375 1.40625 2.57812C1.05418 3.18477 0.859375 4.05164 0.859375 4.80469C0.859375 5.97656 1.55523 7.54613 2.65625 8.28125V8.35938C1.99883 8.33285 1.32547 7.87996 0.78125 7.57812C0.78125 7.59605 0.805078 7.61762 0.805078 7.63555C0.805078 9.62574 2.26383 11.3422 4.14062 11.7188C3.81355 11.8053 3.35289 11.875 3.00781 11.875C2.74227 11.875 2.47719 11.8056 2.22656 11.7578C2.74871 13.3894 4.25781 14.4531 6.05469 14.4531V14.4922C4.65605 15.5765 2.88328 16.3281 0.976562 16.3281C0.645352 16.3281 0.234375 16.2891 0 16.25C1.8141 17.4154 3.9707 18.125 6.28906 18.125C13.8349 18.125 17.9688 11.9141 17.9688 6.48438V5.9375C18.7714 5.35777 19.451 4.57477 20 3.75C20 3.75 18.5599 4.43238 17.6271 4.49152L17.6172 4.45312C18.4646 3.94512 19.1488 3.10766 19.4531 2.14844C18.6595 2.62059 17.7308 2.97879 16.7969 3.16406C16.048 2.36617 15.0487 1.875 13.8672 1.875ZM19.4531 2.14844H19.4533H19.4531Z" fill="url(#paint0_linear)"/>
<defs>
<linearGradient id="paint0_linear" x1="10" y1="1.875" x2="10" y2="18.125" gradientUnits="userSpaceOnUse">
<stop stop-color="#FFC843"/>
<stop offset="1" stop-color="#009EFD"/>
</linearGradient>
</defs>
</svg>
