<svg xmlns="http://www.w3.org/2000/svg" xmlns:xlink="http://www.w3.org/1999/xlink" width="522.667" height="784" viewBox="0 0 522.667 784">
  <defs>
    <clipPath id="clip-path">
      <rect id="Rectangle_137" data-name="Rectangle 137" width="522.667" height="784" fill="none"/>
    </clipPath>
    <linearGradient id="linear-gradient" x1="1" y1="0.5" x2="0" y2="0.5" gradientUnits="objectBoundingBox">
      <stop offset="0" stop-color="#f3a6b8" stop-opacity="0"/>
      <stop offset="0.317" stop-color="#f3a6b8"/>
      <stop offset="0.476" stop-color="#be81b5"/>
      <stop offset="0.64" stop-color="#8f61b2"/>
      <stop offset="0.766" stop-color="#724cb0"/>
      <stop offset="0.838" stop-color="#6745b0"/>
      <stop offset="1" stop-color="#6745b0" stop-opacity="0"/>
    </linearGradient>
  </defs>
  <g id="Group_261" data-name="Group 261" transform="translate(-837.555 234.522)" opacity="0.841">
    <g id="Group_260" data-name="Group 260" transform="translate(837.555 -234.522)" clip-path="url(#clip-path)">
      <g id="Group_237" data-name="Group 237" transform="translate(-170.171 85.907)">
        <rect id="Rectangle_125" data-name="Rectangle 125" width="62.741" height="5.369" transform="translate(594.066 500.654)" fill="url(#linear-gradient)"/>
        <rect id="Rectangle_133" data-name="Rectangle 133" width="22.914" height="6.741" transform="translate(551.238 446.824)" fill="url(#linear-gradient)"/>
        <rect id="Rectangle_134" data-name="Rectangle 134" width="264.917" height="1.052" transform="translate(360.707)" fill="url(#linear-gradient)"/>
        <rect id="Rectangle_135" data-name="Rectangle 135" width="264.917" height="1.052" transform="translate(0 196.842)" fill="url(#linear-gradient)"/>
        <rect id="Rectangle_136" data-name="Rectangle 136" width="264.917" height="1.052" transform="translate(599.939 83.324)" fill="url(#linear-gradient)"/>
      </g>
      <g id="Group_259" data-name="Group 259" transform="translate(87.531 124.356)">
        <g id="Group_238" data-name="Group 238" transform="translate(173.273 209.478)">
          <path id="Path_601" data-name="Path 601" d="M1021.989-24.787c1.2-3.957-.525-8.179-2.707-11.668s-4.9-6.772-5.964-10.749a14.416,14.416,0,0,1,1.318-10.605c1.472-2.649,7.843-5.338,10.625-10.009,3.474-5.828,3.007-10.06.561-13.976-3.358-5.376-11.8-4.371-17.476-3.368-3.081.745-8.742-.707-9.653-3.719s-.932-6.383-2.677-9a9.137,9.137,0,0,0-8.752-3.669,12.308,12.308,0,0,0-8.2,5.308c-2.141,3.088-3.533,7.363-7.174,8.3-3.422.886-6.717-1.9-8.461-4.947s-.8-3.745-3.242-6.262c-3.78-3.889-10.449-4.093-15.06-1.156s-7.2,8.408-7.545,13.832-.614,7.936,1.775,12.8c1.386,2.826,3.078,5.883,2.3,8.946-.634,2.485-2.752,4.285-4.8,5.848-4.283,3.275-8.81,6.325-12.368,10.368-4.49,5.1-7.27,11.959-6.4,18.658s5.873,12.949,12.527,14.246c6.247,1.22,12.474-1.808,18.206-4.631,2.134-1.05,4.507-2.114,6.8-1.528,2.871.73,4.457,3.684,5.823,6.3,2.063,3.954,4.861,8.133,9.244,9.057,3.909.826,7.911-1.278,10.843-4.012s5.184-6.131,8.146-8.833c2.414-2.2,5.969-3.947,8.843-2.437,2.063,1.081,3.078,3.515,5.037,4.772,2.078,1.336,4.8,1.1,7.217.545C1015.56-17.462,1020.57-20.116,1021.989-24.787Z" transform="translate(-917.936 102.314)" fill="none" stroke="#707070" stroke-miterlimit="10" stroke-width="0.12"/>
        </g>
        <g id="Group_239" data-name="Group 239" transform="translate(170.491 205.717)">
          <path id="Path_602" data-name="Path 602" d="M1029.02-23.145c1.068-4.315-1.025-8.752-3.565-12.378s-5.641-6.994-7.009-11.206a15.5,15.5,0,0,1,.821-11.464c1.432-2.924,8.12-6.171,10.845-11.343,3.4-6.454,2.664-10.971-.182-15.039-3.911-5.583-12.916-4.033-18.958-2.634-3.267.972-9.426-.268-10.575-3.452s-1.359-6.8-3.379-9.514a9.828,9.828,0,0,0-9.605-3.449,13.245,13.245,0,0,0-8.5,6.161c-2.126,3.439-3.379,8.105-7.237,9.323-3.623,1.144-7.318-1.667-9.363-4.836s-1.068-3.977-3.836-6.542c-4.278-3.964-11.451-3.805-16.234-.394s-7.257,9.434-7.323,15.277-.215,8.557,2.626,13.648c1.646,2.957,3.634,6.146,2.969,9.477-.54,2.7-2.714,4.757-4.82,6.55-4.414,3.757-9.105,7.287-12.7,11.83-4.535,5.732-7.133,13.249-5.82,20.392S924.21-9.164,931.426-8.143c6.775.957,13.295-2.644,19.286-6,2.235-1.25,4.722-2.523,7.222-2.025,3.123.624,4.992,3.707,6.605,6.439,2.44,4.128,5.676,8.461,10.436,9.206,4.245.664,8.424-1.818,11.416-4.919s5.222-6.876,8.252-9.944c2.469-2.495,6.186-4.573,9.36-3.116,2.275,1.045,3.5,3.6,5.676,4.843,2.306,1.316,5.209.909,7.78.179C1022.528-14.918,1027.757-18.047,1029.02-23.145Z" transform="translate(-916.834 103.803)" fill="none" stroke="#707070" stroke-miterlimit="10" stroke-width="0.129"/>
        </g>
        <g id="Group_240" data-name="Group 240" transform="translate(167.698 201.009)">
          <path id="Path_603" data-name="Path 603" d="M1036.415-21.278c.9-4.692-1.593-9.338-4.525-13.087s-6.452-7.194-8.156-11.641a16.656,16.656,0,0,1,.235-12.355c1.371-3.222,8.373-7.085,11.007-12.789,3.29-7.123,2.245-11.933-1.043-16.14-4.512-5.775-14.1-3.6-20.5-1.763-3.452,1.23-10.136.245-11.55-3.111s-1.843-7.224-4.164-10.027a10.571,10.571,0,0,0-10.509-3.161,14.234,14.234,0,0,0-8.785,7.1c-2.088,3.81-3.172,8.893-7.245,10.416-3.828,1.434-7.954-1.376-10.327-4.666s-1.371-4.207-4.487-6.808c-4.815-4.015-12.509-3.444-17.453.49s-7.262,10.54-7,16.817.252,9.2,3.588,14.509c1.937,3.081,4.25,6.391,3.722,10.007-.429,2.932-2.646,5.26-4.808,7.305-4.527,4.283-9.365,8.335-12.966,13.416-4.545,6.411-6.914,14.63-5.1,22.228S924.656-.366,932.464.324c7.33.646,14.127-3.588,20.375-7.525,2.325-1.467,4.926-2.977,7.638-2.581,3.389.492,5.57,3.7,7.454,6.54,2.851,4.3,6.573,8.767,11.727,9.3,4.6.475,8.941-2.424,11.981-5.924s5.219-7.679,8.3-11.141c2.51-2.82,6.383-5.26,9.873-3.873,2.5.995,3.964,3.669,6.368,4.881,2.55,1.283,5.646.682,8.365-.247C1029.908-12.077,1035.348-15.733,1036.415-21.278Z" transform="translate(-915.728 105.668)" fill="none" stroke="#707070" stroke-miterlimit="10" stroke-width="0.139"/>
        </g>
        <g id="Group_241" data-name="Group 241" transform="translate(164.912 196.017)">
          <path id="Path_604" data-name="Path 604" d="M1044.174-19.632c.707-5.091-2.235-9.939-5.6-13.8s-7.33-7.363-9.413-12.04a17.926,17.926,0,0,1-.442-13.279c1.291-3.538,8.593-8.08,11.1-14.355,3.131-7.833,1.737-12.938-2.028-17.271-5.171-5.947-15.34-3.076-22.117-.737-3.639,1.513-10.87.831-12.577-2.692s-2.384-7.653-5.035-10.532a11.361,11.361,0,0,0-11.464-2.8,15.3,15.3,0,0,0-9.035,8.11c-2.027,4.212-2.9,9.729-7.191,11.6-4.03,1.752-8.618-1.03-11.353-4.429s-1.707-4.444-5.2-7.06c-5.4-4.04-13.628-2.992-18.716,1.507s-7.2,11.726-6.575,18.453.79,9.865,4.669,15.378c2.253,3.2,4.924,6.626,4.561,10.535-.293,3.174-2.543,5.8-4.75,8.116-4.621,4.853-9.588,9.479-13.171,15.138-4.52,7.138-6.6,16.1-4.227,24.152s9.729,14.759,18.15,15.059c7.908.283,14.969-4.649,21.456-9.229,2.417-1.7,5.123-3.469,8.057-3.2,3.666.338,6.189,3.659,8.373,6.606,3.3,4.452,7.55,9.042,13.113,9.325,4.964.25,9.467-3.108,12.535-7.037s5.171-8.537,8.287-12.428c2.535-3.169,6.56-6.007,10.383-4.714,2.745.927,4.462,3.717,7.113,4.881,2.813,1.235,6.1.414,8.969-.735C1037.7-9.385,1043.338-13.617,1044.174-19.632Z" transform="translate(-914.625 107.645)" fill="none" stroke="#707070" stroke-miterlimit="10" stroke-width="0.149"/>
        </g>
        <g id="Group_242" data-name="Group 242" transform="translate(162.15 190.738)">
          <path id="Path_605" data-name="Path 605" d="M1052.289-18.254c.475-5.507-2.959-10.547-6.782-14.5s-8.29-7.492-10.787-12.4a19.271,19.271,0,0,1-1.222-14.236c1.187-3.871,8.77-9.158,11.11-16.039,2.922-8.585,1.139-13.991-3.149-18.43-5.888-6.1-16.642-2.439-23.791.452-3.821,1.831-11.625,1.5-13.655-2.182s-2.992-8.085-6-11.027a12.212,12.212,0,0,0-12.464-2.363,16.455,16.455,0,0,0-9.247,9.219c-1.939,4.634-2.57,10.608-7.07,12.853-4.227,2.111-9.312-.621-12.439-4.116s-2.083-4.674-5.982-7.287c-6.022-4.035-14.8-2.447-20.011,2.672s-7.075,13-6.02,20.185,1.4,10.55,5.879,16.249c2.6,3.308,5.659,6.835,5.489,11.057-.139,3.424-2.406,6.368-4.646,8.979-4.689,5.472-9.759,10.719-13.289,17C913.759-14.257,912.029-4.518,915.031,4s11.277,15.3,20.337,15.148c8.507-.141,15.812-5.833,22.518-11.115,2.5-1.97,5.308-4.017,8.472-3.891,3.956.157,6.853,3.581,9.363,6.621,3.8,4.6,8.618,9.285,14.608,9.275,5.34-.008,9.989-3.868,13.062-8.259s5.073-9.459,8.2-13.815c2.545-3.545,6.7-6.818,10.886-5.646,3,.843,5,3.742,7.911,4.843,3.088,1.167,6.575.1,9.59-1.3C1045.918-6.889,1051.731-11.749,1052.289-18.254Z" transform="translate(-913.531 109.735)" fill="none" stroke="#707070" stroke-miterlimit="10" stroke-width="0.16"/>
        </g>
        <g id="Group_243" data-name="Group 243" transform="translate(159.428 185.171)">
          <path id="Path_606" data-name="Path 606" d="M1060.755-17.2c.2-5.939-3.773-11.158-8.1-15.191s-9.32-7.58-12.279-12.706a20.721,20.721,0,0,1-2.113-15.219c1.058-4.222,8.9-10.328,11.029-17.847,2.654-9.383.432-15.087-4.421-19.612-6.664-6.214-18.006-1.684-25.521,1.823-4,2.182-12.4,2.27-14.784-1.576s-3.669-8.512-7.065-11.5c-3.588-3.156-9.082-3.7-13.519-1.836a17.694,17.694,0,0,0-9.408,10.418c-1.821,5.085-2.164,11.537-6.868,14.2-4.422,2.5-10.035-.144-13.59-3.722s-2.5-4.9-6.833-7.487c-6.694-3.995-16.029-1.8-21.337,3.995s-6.866,14.352-5.33,22.014,2.1,11.247,7.229,17.115c2.974,3.409,6.459,7.025,6.515,11.565.045,3.687-2.225,6.974-4.482,9.906-4.727,6.138-9.878,12.057-13.312,19-4.336,8.754-5.646,19.309-1.944,28.286s12.971,15.792,22.693,15.12c9.126-.631,16.648-7.154,23.554-13.2,2.573-2.252,5.472-4.611,8.878-4.654,4.257-.053,7.56,3.459,10.426,6.583,4.338,4.722,9.777,9.487,16.206,9.138,5.737-.311,10.509-4.717,13.562-9.605s4.916-10.441,8.027-15.294c2.533-3.949,6.818-7.7,11.37-6.676,3.267.735,5.58,3.737,8.77,4.755,3.381,1.081,7.065-.26,10.224-1.929C1054.551-4.638,1060.52-10.185,1060.755-17.2Z" transform="translate(-912.453 111.94)" fill="none" stroke="#707070" stroke-miterlimit="10" stroke-width="0.173"/>
        </g>
        <g id="Group_244" data-name="Group 244" transform="translate(156.77 179.315)">
          <path id="Path_607" data-name="Path 607" d="M1069.554-16.526c-.121-6.388-4.679-11.772-9.555-15.857S1049.563-40,1046.1-45.337a22.267,22.267,0,0,1-3.126-16.221c.9-4.6,8.979-11.593,10.837-19.784,2.323-10.227-.384-16.226-5.85-20.814-7.5-6.3-19.431-.793-27.3,3.394-4.171,2.568-13.186,3.136-15.966-.859s-4.416-8.934-8.231-11.951c-4.03-3.189-9.964-3.469-14.62-1.215a19.04,19.04,0,0,0-9.517,11.719c-1.669,5.563-1.674,12.509-6.578,15.635-4.605,2.937-10.782.409-14.8-3.232s-2.959-5.121-7.76-7.653c-7.414-3.914-17.314-1.028-22.688,5.489s-6.563,15.8-4.482,23.938,2.886,11.961,8.724,17.973c3.389,3.49,7.333,7.176,7.648,12.05.255,3.954-2,7.613-4.257,10.888-4.729,6.858-9.928,13.5-13.226,21.15-4.161,9.643-4.974,21.049-.495,30.48s14.817,16.229,25.218,14.961c9.765-1.192,17.476-8.618,24.549-15.5,2.636-2.565,5.618-5.26,9.272-5.5,4.571-.3,8.313,3.288,11.567,6.482,4.922,4.825,11.03,9.636,17.916,8.9,6.143-.657,11.019-5.659,14.022-11.077s4.692-11.492,7.759-16.875c2.5-4.384,6.886-8.651,11.832-7.808,3.55.6,6.2,3.7,9.683,4.611,3.694.97,7.575-.677,10.87-2.646C1063.6-2.686,1069.7-8.981,1069.554-16.526Z" transform="translate(-911.4 114.259)" fill="none" stroke="#707070" stroke-miterlimit="10" stroke-width="0.186"/>
        </g>
        <g id="Group_245" data-name="Group 245" transform="translate(153.275 173.173)">
          <path id="Path_608" data-name="Path 608" d="M1079.228-16.3c-.49-6.853-5.687-12.375-11.151-16.491s-11.633-7.588-15.655-13.125a23.954,23.954,0,0,1-4.27-17.241c.7-4.984,8.989-12.954,10.525-21.857,1.917-11.11-1.326-17.4-7.451-22.019-8.416-6.34-20.913.242-29.127,5.181-4.336,2.992-13.984,4.108-17.193-.023s-5.244-9.345-9.512-12.373c-4.507-3.2-10.893-3.164-15.767-.48a20.473,20.473,0,0,0-9.56,13.118c-1.48,6.07-1.093,13.529-6.184,17.16-4.78,3.414-11.552,1.048-16.072-2.636s-3.469-5.335-8.762-7.785c-8.181-3.783-18.65-.126-24.054,7.174s-6.159,17.335-3.467,25.955,3.772,12.681,10.378,18.809c3.836,3.558,8.28,7.295,8.891,12.509.5,4.232-1.714,8.287-3.957,11.931-4.694,7.631-9.9,15.059-13.012,23.453-3.926,10.593-4.159,22.885,1.184,32.76s16.825,16.59,27.92,14.643c10.418-1.828,18.279-10.237,25.488-18.026,2.687-2.9,5.737-5.964,9.648-6.426,4.889-.576,9.108,3.063,12.785,6.31,5.555,4.906,12.385,9.727,19.738,8.547,6.557-1.05,11.514-6.694,14.433-12.683s4.391-12.6,7.381-18.557c2.434-4.848,6.908-9.676,12.267-9.05,3.846.449,6.868,3.621,10.658,4.406,4.02.836,8.1-1.151,11.524-3.454C1073.614-1.1,1079.806-8.2,1079.228-16.3Z" transform="translate(-910.016 116.692)" fill="none" stroke="#707070" stroke-miterlimit="10" stroke-width="0.199"/>
        </g>
        <g id="Group_246" data-name="Group 246" transform="translate(145.556 166.752)">
          <path id="Path_609" data-name="Path 609" d="M1091.816-16.579c-.911-7.33-6.8-12.969-12.9-17.08S1066-41.153,1061.364-46.873a25.764,25.764,0,0,1-5.555-18.274c.477-5.391,8.924-14.416,10.072-24.061,1.435-12.039-2.4-18.61-9.242-23.223-9.391-6.335-22.44,1.434-30.983,7.2-4.487,3.457-14.784,5.2-18.463.942s-6.159-9.739-10.911-12.749c-5.02-3.179-11.875-2.783-16.958.374A22,22,0,0,0,969.8-102.04c-1.25,6.6-.414,14.587-5.674,18.774-4.941,3.934-12.347,1.775-17.41-1.927s-4.022-5.532-9.845-7.866c-9-3.6-20.034.914-25.425,9.055s-5.639,18.961-2.262,28.066,4.765,13.406,12.2,19.615c4.318,3.6,9.3,7.366,10.252,12.931.77,4.517-1.376,9-3.578,13.034C923.45-1.9,918.276,6.371,915.408,15.56c-3.621,11.593-3.177,24.806,3.116,35.108s19,16.87,30.8,14.156c11.085-2.55,19.054-12.022,26.357-20.794,2.72-3.267,5.823-6.727,10-7.441,5.217-.894,9.954,2.778,14.082,6.055,6.242,4.954,13.848,9.747,21.675,8.068,6.984-1.495,11.989-7.835,14.784-14.431s4.007-13.779,6.884-20.342c2.341-5.343,6.873-10.779,12.663-10.408,4.156.268,7.58,3.5,11.691,4.134,4.366.669,8.628-1.694,12.181-4.358C1086.645.053,1092.894-7.919,1091.816-16.579Z" transform="translate(-906.959 119.234)" fill="none" stroke="#707070" stroke-miterlimit="10" stroke-width="0.214"/>
        </g>
        <g id="Group_247" data-name="Group 247" transform="translate(137.237 160.06)">
          <path id="Path_610" data-name="Path 610" d="M1105.118-17.451c-1.391-7.82-8.035-13.544-14.814-17.615s-14.294-7.32-19.589-13.2a27.689,27.689,0,0,1-6.992-19.309c.207-5.818,8.77-15.981,9.462-26.4.861-13.009-3.629-19.852-11.232-24.42-10.441-6.272-24.016,2.805-32.864,9.477-4.626,3.967-15.582,6.416-19.771,2.053s-7.164-10.113-12.436-13.077c-5.568-3.131-12.906-2.321-18.188,1.356s-8.542,9.865-9.406,16.239c-.97,7.156.376,15.686-5.035,20.478-5.085,4.5-13.16,2.6-18.8-1.091s-4.633-5.714-11.017-7.891c-9.865-3.363-21.46,2.108-26.791,11.153s-4.987,20.678-.851,30.265S912.665-35.311,921-29.061c4.841,3.626,10.4,7.386,11.736,13.31,1.083,4.805-.972,9.737-3.108,14.2-4.474,9.34-9.565,18.511-12.13,28.541-3.232,12.651-2.013,26.814,5.323,37.522s21.349,17.047,33.874,13.466c11.759-3.361,19.781-13.981,27.129-23.811,2.737-3.661,5.874-7.55,10.318-8.552,5.553-1.252,10.843,2.422,15.461,5.709,6.984,4.969,15.42,9.686,23.731,7.444,7.416-2,12.431-9.088,15.064-16.33s3.525-15.019,6.245-22.228c2.215-5.868,6.775-11.964,13.012-11.891,4.477.053,8.335,3.336,12.787,3.78,4.724.472,9.169-2.305,12.835-5.363C1100.5.7,1106.762-8.212,1105.118-17.451Z" transform="translate(-903.665 121.885)" fill="none" stroke="#707070" stroke-miterlimit="10" stroke-width="0.231"/>
        </g>
        <g id="Group_248" data-name="Group 248" transform="translate(128.292 150.934)">
          <path id="Path_611" data-name="Path 611" d="M1119.133-17.684c-1.934-8.318-9.391-14.09-16.9-18.079s-15.761-7.055-21.779-13.072a29.794,29.794,0,0,1-8.6-20.342c-.1-6.257,8.519-17.653,8.673-28.882.194-14.019-5.012-21.112-13.433-25.589-11.565-6.151-25.629,4.363-34.755,12.024-4.745,4.517-16.373,7.767-21.117,3.315s-8.26-10.454-14.087-13.34c-6.156-3.05-13.989-1.768-19.453,2.477s-8.618,11.075-9.186,17.966c-.639,7.739,1.288,16.825-4.255,22.274-5.209,5.121-13.986,3.533-20.251-.111s-5.3-5.876-12.275-7.853c-10.782-3.055-22.925,3.469-28.139,13.484s-4.192,22.483.79,32.546,7.1,14.837,16.4,21.077c5.4,3.623,11.582,7.348,13.35,13.633,1.434,5.1-.495,10.509-2.538,15.421-4.28,10.282-9.229,20.418-11.418,31.331-2.76,13.767-.654,28.907,7.825,39.992s23.887,17.1,37.131,12.555c12.439-4.272,20.456-16.128,27.793-27.1,2.732-4.086,5.883-8.439,10.6-9.764,5.891-1.656,11.782,1.99,16.925,5.26,7.777,4.944,17.1,9.535,25.9,6.659,7.85-2.565,12.837-10.459,15.256-18.382s2.942-16.327,5.454-24.22c2.048-6.426,6.6-13.226,13.3-13.5,4.81-.194,9.138,3.111,13.943,3.338,5.1.242,9.716-2.99,13.479-6.482C1115.194,2.067,1121.418-7.854,1119.133-17.684Z" transform="translate(-900.122 125.499)" fill="none" stroke="#707070" stroke-miterlimit="10" stroke-width="0.248"/>
        </g>
        <g id="Group_249" data-name="Group 249" transform="translate(118.695 139.653)">
          <path id="Path_612" data-name="Path 612" d="M1133.853-17.522c-2.545-8.823-10.876-14.6-19.165-18.463s-17.322-6.686-24.119-12.812a32.023,32.023,0,0,1-10.376-21.357c-.465-6.714,8.153-19.438,7.689-31.5-.583-15.065-6.57-22.387-15.865-26.723-12.767-5.952-27.276,6.128-36.644,14.87-4.841,5.118-17.143,9.259-22.488,4.75s-9.459-10.764-15.878-13.534c-6.782-2.927-15.123-1.108-20.751,3.755s-8.631,12.378-8.853,19.809c-.25,8.348,2.328,17.994-3.315,24.157-5.3,5.79-14.817,4.58-21.751,1.02s-6.017-6.012-13.62-7.742c-11.749-2.677-24.422,5.015-29.46,16.062s-3.235,24.379,2.682,34.9S910.4-14.8,920.738-8.621c6,3.588,12.852,7.239,15.1,13.888,1.826,5.4.061,11.315-1.858,16.7-4.015,11.282-8.762,22.443-10.5,34.285-2.189,14.938.924,31.076,10.653,42.5s26.612,17.019,40.578,11.391c13.118-5.287,21.059-18.468,28.319-30.659,2.7-4.54,5.843-9.393,10.83-11.083,6.232-2.111,12.762,1.475,18.468,4.7,8.631,4.871,18.9,9.275,28.187,5.691,8.285-3.194,13.2-11.954,15.347-20.6s2.24-17.7,4.495-26.314c1.836-7.017,6.343-14.575,13.527-15.244,5.154-.48,9.987,2.826,15.158,2.8,5.489-.028,10.264-3.76,14.11-7.719C1130.735,3.909,1136.86-7.1,1133.853-17.522Z" transform="translate(-896.322 129.967)" fill="none" stroke="#707070" stroke-miterlimit="10" stroke-width="0.267"/>
        </g>
        <g id="Group_250" data-name="Group 250" transform="translate(108.424 127.571)">
          <path id="Path_613" data-name="Path 613" d="M1149.263-17.868c-3.229-9.333-12.5-15.067-21.617-18.746s-18.976-6.209-26.622-12.4a34.442,34.442,0,0,1-12.343-22.352c-.874-7.181,7.664-21.329,6.484-34.26-1.472-16.14-8.315-23.67-18.542-27.8-14.039-5.671-28.942,8.116-38.51,18.029-4.908,5.77-17.888,10.908-23.879,6.366s-10.762-11.024-17.812-13.638c-7.449-2.762-16.3-.341-22.069,5.2S965.781-103.7,965.961-95.7c.2,8.977,3.515,19.19-2.2,26.127-5.371,6.517-15.653,5.752-23.3,2.318s-6.8-6.116-15.062-7.547c-12.767-2.209-25.942,6.762-30.727,18.908s-2.1,26.359,4.841,37.328,9.959,16.2,21.41,22.253c6.646,3.512,14.206,7.047,17,14.062,2.262,5.692.7,12.146-1.056,18.037-3.679,12.342-8.146,24.594-9.343,37.406-1.51,16.165,2.742,33.318,13.832,45.042s29.531,16.777,44.211,9.946c13.787-6.414,21.574-21.016,28.685-34.515,2.649-5.027,5.745-10.413,11-12.509,6.573-2.618,13.787.866,20.1,4,9.54,4.742,20.817,8.9,30.586,4.525,8.716-3.9,13.5-13.577,15.322-22.981s1.406-19.13,3.343-28.511c1.578-7.636,5.992-16.006,13.668-17.13,5.507-.805,10.883,2.472,16.436,2.154,5.894-.338,10.81-4.613,14.714-9.083C1147.124,5.32,1153.078-6.844,1149.263-17.868Z" transform="translate(-892.254 134.751)" fill="none" stroke="#707070" stroke-miterlimit="10" stroke-width="0.287"/>
        </g>
        <g id="Group_251" data-name="Group 251" transform="translate(97.456 114.665)">
          <path id="Path_614" data-name="Path 614" d="M1165.346-18.8c-3.995-9.84-14.272-15.476-24.269-18.913s-20.726-5.6-29.283-11.817a37.026,37.026,0,0,1-14.511-23.306c-1.343-7.664,7.027-23.334,5.032-37.154-2.49-17.249-10.26-24.948-21.473-28.808-15.4-5.3-30.622,10.343-40.338,21.526-4.944,6.469-18.592,12.719-25.284,8.179s-12.176-11.231-19.892-13.643c-8.153-2.545-17.521.553-23.4,6.825s-8.429,15.274-7.787,23.849c.722,9.628,4.853,20.408-.894,28.177-5.4,7.3-16.484,7.058-24.887,3.8s-7.646-6.184-16.6-7.257C907.923-69,894.283-58.62,889.826-45.31s-.775,28.425,7.3,39.813,11.6,16.837,24.241,22.69c7.335,3.4,15.653,6.77,19.044,14.143,2.752,5.982,1.437,13-.116,19.428-3.257,13.459-7.363,26.867-7.929,40.691-.712,17.443,4.82,35.624,17.388,47.587s32.657,16.355,48.037,8.191c14.441-7.664,21.981-23.779,28.857-38.674,2.56-5.55,5.583-11.507,11.113-14.052,6.911-3.182,14.853.151,21.807,3.166,10.512,4.558,22.852,8.383,33.1,3.141,9.138-4.676,13.729-15.342,15.158-25.541s.434-20.62,1.987-30.8c1.262-8.29,5.532-17.526,13.711-19.163,5.868-1.177,11.825,2.04,17.769,1.386,6.31-.694,11.348-5.56,15.289-10.58C1164.351,6.219,1170.063-7.174,1165.346-18.8Z" transform="translate(-887.91 139.863)" fill="none" stroke="#707070" stroke-miterlimit="10" stroke-width="0.308"/>
        </g>
        <g id="Group_252" data-name="Group 252" transform="translate(85.773 100.912)">
          <path id="Path_615" data-name="Path 615" d="M1182.065-20.4c-4.843-10.34-16.193-15.814-27.124-18.943s-22.569-4.846-32.109-11.042A39.8,39.8,0,0,1,1105.94-74.59c-1.876-8.153,6.232-25.453,3.313-40.179-3.644-18.382-12.421-26.213-24.677-29.725-16.832-4.828-32.3,12.827-42.105,25.384-4.947,7.224-19.249,14.7-26.687,10.2s-13.708-11.375-22.13-13.529c-8.9-2.275-18.784,1.578-24.748,8.646s-8.191,16.878-7.02,26.046c1.318,10.3,6.361,21.642.626,30.308-5.386,8.141-17.3,8.5-26.51,5.482s-8.557-6.212-18.231-6.858c-14.946-1-29.01,10.908-33.048,25.453s.77,30.566,10.08,42.338,13.408,17.428,27.306,23c8.07,3.237,17.191,6.388,21.246,14.115,3.293,6.27,2.275,13.88.967,20.87-2.737,14.635-6.393,29.263-6.222,44.141.217,18.769,7.179,37.98,21.347,50.12s35.987,15.724,52.042,6.093c15.077-9.042,22.266-26.771,28.811-43.153,2.44-6.1,5.348-12.668,11.141-15.713,7.245-3.805,15.959-.672,23.594,2.174,11.545,4.3,25.013,7.714,35.719,1.507,9.55-5.535,13.878-17.244,14.837-28.276s-.692-22.168.4-33.187c.891-8.974,4.954-19.13,13.646-21.349,6.234-1.591,12.812,1.528,19.157.49,6.737-1.1,11.873-6.611,15.825-12.221C1182.406,6.526,1187.785-8.18,1182.065-20.4Z" transform="translate(-883.284 145.309)" fill="none" stroke="#707070" stroke-miterlimit="10" stroke-width="0.332"/>
        </g>
        <g id="Group_253" data-name="Group 253" transform="translate(73.36 86.297)">
          <path id="Path_616" data-name="Path 616" d="M1199.383-22.745c-5.783-10.833-18.279-16.072-30.192-18.817s-24.508-3.932-35.1-10.05a42.8,42.8,0,0,1-19.5-25.044c-2.472-8.648,5.26-27.682,1.3-43.33-4.947-19.534-14.812-27.447-28.172-30.531-18.345-4.235-33.962,15.592-43.782,29.629-4.906,8.035-19.842,16.872-28.086,12.456s-15.357-11.444-24.521-13.282c-9.684-1.942-20.082,2.755-26.089,10.679s-7.845,18.582-6.07,28.364c1.992,10.981,8.045,22.88,2.376,32.508-5.325,9.045-18.1,10.108-28.157,7.378s-9.54-6.189-19.963-6.338c-16.1-.232-30.538,13.347-34.053,29.192s2.545,32.775,13.2,44.893,15.378,17.961,30.616,23.162c8.845,3.02,18.817,5.894,23.607,13.961,3.889,6.547,3.225,14.777,2.214,22.354-2.116,15.87-5.219,31.78-4.2,47.746,1.29,20.145,9.848,40.381,25.745,52.62s39.527,14.857,56.226,3.613c15.681-10.557,22.4-30,28.508-47.959,2.275-6.689,5.027-13.906,11.078-17.5,7.565-4.492,17.1-1.619,25.458,1.008,12.638,3.969,27.293,6.876,38.439-.391,9.944-6.482,13.933-19.3,14.343-31.2s-1.99-23.763-1.437-35.659c.452-9.686,4.242-20.819,13.451-23.693,6.605-2.06,13.842.919,20.6-.55,7.172-1.563,12.378-7.767,16.3-14.017C1201.264,6.142,1206.213-9.951,1199.383-22.745Z" transform="translate(-878.368 151.097)" fill="none" stroke="#707070" stroke-miterlimit="10" stroke-width="0.356"/>
        </g>
        <g id="Group_254" data-name="Group 254" transform="translate(60.2 70.807)">
          <path id="Path_617" data-name="Path 617" d="M1217.247-25.945c-6.818-11.307-20.532-16.229-33.48-18.506s-26.536-2.843-38.255-8.815a46.031,46.031,0,0,1-22.352-25.8c-3.141-9.148,4.091-30.02-1.045-46.6-6.411-20.7-17.448-28.639-31.97-31.2-19.935-3.517-35.588,18.655-45.345,34.278-4.813,8.906-20.355,19.233-29.455,14.958s-17.135-11.423-27.079-12.883c-10.509-1.543-21.41,4.086-27.415,12.933s-7.378,20.395-4.924,30.8c2.76,11.681,9.928,24.117,4.384,34.773-5.209,10.014-18.87,11.873-29.821,9.509S919.9-38.6,908.7-38.176c-17.309.659-32.043,16.052-34.924,33.263s4.578,35.053,16.706,47.464S908,60.971,924.66,65.7c9.669,2.745,20.536,5.267,26.135,13.663,4.543,6.81,4.293,15.683,3.633,23.877-1.378,17.16-3.815,34.422-1.82,51.509,2.52,21.556,12.847,42.8,30.606,55.051s43.28,13.731,60.579.717c16.244-12.219,22.367-33.475,27.912-53.1,2.065-7.31,4.616-15.214,10.911-19.415,7.871-5.25,18.269-2.7,27.392-.351,13.794,3.55,29.695,5.848,41.254-2.583,10.313-7.52,13.875-21.506,13.645-34.308s-3.474-25.4-3.55-38.209c-.061-10.426,3.386-22.594,13.11-26.2,6.977-2.583,14.916.207,22.089-1.752,7.613-2.078,12.853-9.035,16.719-15.966C1220.891,4.97,1225.3-12.59,1217.247-25.945Z" transform="translate(-873.156 157.231)" fill="none" stroke="#707070" stroke-miterlimit="10" stroke-width="0.383"/>
        </g>
        <g id="Group_255" data-name="Group 255" transform="translate(46.285 54.433)">
          <path id="Path_618" data-name="Path 618" d="M1235.589-30.095c-7.954-11.757-22.958-16.272-36.99-17.986s-28.655-1.56-41.575-7.315a49.5,49.5,0,0,1-25.45-26.44c-3.889-9.648,2.7-32.467-3.745-49.981-8.05-21.865-20.349-29.771-36.086-31.7-21.6-2.651-37.166,22.036-46.762,39.361-4.669,9.833-20.776,21.8-30.788,17.718s-19.044-11.3-29.8-12.307c-11.37-1.066-22.758,5.591-28.708,15.431S948.906-81,952.128-69.97c3.621,12.391,12.019,25.339,6.664,37.093-5.03,11.047-19.592,13.81-31.485,11.888s-11.716-5.964-23.72-4.876c-18.549,1.682-33.5,19.039-35.631,37.682s6.888,37.381,20.612,50.029,19.852,18.792,38,22.933c10.537,2.4,22.349,4.5,28.834,13.2,5.262,7.058,5.492,16.6,5.244,25.435-.515,18.5-2.159,37.177.945,55.413,3.916,23,16.2,45.239,35.962,57.392s47.246,12.307,65.089-2.639c16.756-14.037,22.135-37.2,26.985-58.594,1.805-7.967,4.1-16.595,10.623-21.461,8.156-6.08,19.466-3.929,29.394-1.919,15.011,3.038,32.215,4.608,44.153-5.1,10.651-8.653,13.688-23.874,12.721-37.606s-5.161-27.086-5.962-40.83c-.651-11.191,2.364-24.453,12.6-28.869,7.345-3.166,16.029-.616,23.622-3.124,8.055-2.661,13.292-10.426,17.052-18.087C1241.245,2.9,1244.99-16.207,1235.589-30.095Z" transform="translate(-867.645 163.716)" fill="none" stroke="#707070" stroke-miterlimit="10" stroke-width="0.412"/>
        </g>
        <g id="Group_256" data-name="Group 256" transform="translate(31.614 37.175)">
          <path id="Path_619" data-name="Path 619" d="M1254.336-35.307c-9.2-12.176-25.569-16.178-40.732-17.234s-30.859-.061-45.055-5.512a53.223,53.223,0,0,1-28.818-26.96c-4.717-10.141,1.075-35.013-6.833-53.458-9.873-23.024-23.526-30.821-40.533-32.01-23.349-1.634-38.669,25.753-48,44.9-4.459,10.822-21.082,24.576-32.061,20.761s-21.087-11.065-32.7-11.542c-12.267-.5-24.124,7.287-29.957,18.185s-6.02,24.344-1.939,36.01c4.583,13.1,14.33,26.528,9.242,39.454C952.177-10.574,936.694-6.786,923.813-8.18s-12.916-5.745-25.743-3.9c-19.822,2.848-34.9,22.329-36.139,42.469s9.5,39.752,24.945,52.559,22.377,19.062,42.1,22.486c11.451,1.99,24.253,3.575,31.7,12.552,6.048,7.285,6.833,17.519,7.065,27.018.487,19.9-.227,40.042,4.131,59.448,5.5,24.483,19.945,47.668,41.845,59.6s51.425,10.557,69.745-6.5c17.2-16.014,21.673-41.194,25.677-64.435,1.492-8.656,3.47-18.052,10.2-23.642,8.414-6.989,20.68-5.315,31.455-3.717,16.292,2.419,34.851,3.136,47.123-7.954,10.951-9.893,13.355-26.407,11.545-41.1s-7.065-28.793-8.7-43.507c-1.328-11.981,1.161-26.392,11.908-31.707,7.709-3.815,17.178-1.566,25.188-4.687,8.5-3.31,13.688-11.944,17.294-20.38C1262.265-.2,1265.212-20.921,1254.336-35.307Z" transform="translate(-861.835 170.551)" fill="none" stroke="#707070" stroke-miterlimit="10" stroke-width="0.443"/>
        </g>
        <g id="Group_257" data-name="Group 257" transform="translate(16.181 19.035)">
          <path id="Path_620" data-name="Path 620" d="M1273.391-41.695c-10.57-12.557-28.367-15.933-44.709-16.211s-33.139,1.669-48.689-3.386a57.227,57.227,0,0,1-32.462-27.329c-5.636-10.623-.815-37.656-10.348-57.018-11.9-24.167-27-31.77-45.322-32.091-25.165-.439-40.075,29.829-49.014,50.91-4.182,11.873-21.256,27.579-33.26,24.1s-23.263-10.694-35.757-10.552c-13.2.151-25.5,9.181-31.147,21.213s-5.093,26.478-.056,38.775c5.659,13.807,16.88,27.682,12.146,41.848C950.324,1.868,933.911,6.807,920,6.034S905.812.592,892.142,3.294c-21.127,4.174-36.225,25.943-36.417,47.635s12.436,42.151,29.745,55.034,25.1,19.211,46.469,21.779c12.408,1.49,26.243,2.475,34.75,11.694,6.9,7.479,8.323,18.425,9.108,28.614,1.641,21.339,2.007,43.009,7.782,63.6,7.282,25.98,24.1,50.062,48.287,61.647s55.814,8.444,74.525-10.9c17.569-18.165,20.956-45.456,23.948-70.636,1.114-9.381,2.709-19.579,9.623-25.963,8.641-7.977,21.9-6.871,33.566-5.76,17.63,1.679,37.6,1.406,50.155-11.194,11.2-11.239,12.853-29.106,10.083-44.782s-9.209-30.518-11.79-46.226c-2.1-12.789-.24-28.4,11-34.717,8.065-4.53,18.357-2.646,26.783-6.449,8.941-4.033,14.024-13.595,17.423-22.857C1283.88-4.443,1285.878-26.86,1273.391-41.695Z" transform="translate(-855.723 177.735)" fill="none" stroke="#707070" stroke-miterlimit="10" stroke-width="0.477"/>
        </g>
        <g id="Group_258" data-name="Group 258">
          <path id="Path_621" data-name="Path 621" d="M1292.641-49.371c-12.057-12.888-31.359-15.511-48.921-14.893s-35.49,3.659-52.473-.894a61.539,61.539,0,0,1-36.4-27.518c-6.648-11.09-2.992-40.391-14.317-60.644-14.135-25.281-30.778-32.6-50.474-31.909-27.046.947-41.353,34.288-49.766,57.428-3.821,12.981-21.274,30.808-34.359,27.745s-25.581-10.176-38.99-9.317c-14.168.9-26.859,11.292-32.253,24.531s-3.98,28.718,2.124,41.638c6.853,14.509,19.685,28.776,15.4,44.252-4.028,14.542-21.372,20.769-36.351,20.721s-15.544-5.045-30.074-1.374c-22.45,5.671-37.437,29.894-36.424,53.2s15.729,44.56,35.038,57.42,28.033,19.216,51.125,20.769c13.408.9,28.319,1.182,37.974,10.6,7.833,7.643,9.972,19.317,11.388,30.212,2.964,22.822,4.578,46.07,11.936,67.859,9.282,27.485,28.693,52.4,55.319,63.478s60.41,5.926,79.411-15.9c17.845-20.493,19.943-49.986,21.741-77.194.669-10.136,1.808-21.178,8.871-28.42,8.83-9.052,23.137-8.61,35.719-8.075,19.026.811,40.451-.606,53.226-14.842,11.4-12.7,12.163-31.977,8.307-48.653s-11.605-32.253-15.261-48.974c-2.977-13.618-1.856-30.488,9.86-37.9,8.4-5.318,19.562-3.873,28.4-8.431,9.375-4.833,14.294-15.388,17.421-25.523C1306-9.96,1306.882-34.145,1292.641-49.371Z" transform="translate(-849.315 185.273)" fill="none" stroke="#707070" stroke-miterlimit="10" stroke-width="0.512"/>
        </g>
      </g>
    </g>
  </g>
</svg>
