<svg xmlns="http://www.w3.org/2000/svg" width="133.501" height="115" viewBox="0 0 133.501 115">
  <g id="Group_328" data-name="Group 328" transform="translate(-1606.499 -1245)">
    <g id="Group_157" data-name="Group 157" transform="translate(1612.715 1245.406)">
      <g id="Ellipse_43" data-name="Ellipse 43" transform="translate(12.285 -0.406)" fill="none" stroke="#00efc4" stroke-width="3" stroke-dasharray="3 6">
        <circle cx="57.5" cy="57.5" r="57.5" stroke="none"/>
        <circle cx="57.5" cy="57.5" r="56" fill="none"/>
      </g>
      <ellipse id="Ellipse_44" data-name="Ellipse 44" cx="57" cy="57.5" rx="57" ry="57.5" transform="translate(0.285 -0.406)" fill="#f8f8f8"/>
    </g>
    <g id="Group_168" data-name="Group 168" transform="translate(946.141 746.844)">
      <g id="Group_166" data-name="Group 166" transform="translate(660.358 533.156)">
        <path id="Path_461" data-name="Path 461" d="M683.97,580.38a23.612,23.612,0,0,1,0-47.224c12.705,0,38.093,21.88,39.167,22.812a1.057,1.057,0,0,1,0,1.6C722.062,558.5,696.675,580.38,683.97,580.38Zm0-45.107a21.495,21.495,0,0,0,0,42.989c10.616,0,32.086-17.508,36.837-21.495C716.056,552.78,694.585,535.273,683.97,535.273Z" transform="translate(-660.358 -533.156)" fill="#00efc4"/>
      </g>
      <g id="Group_167" data-name="Group 167" transform="translate(688.521 533.156)">
        <path id="Path_462" data-name="Path 462" d="M733.142,580.38c-12.7,0-38.092-21.881-39.166-22.812a1.058,1.058,0,0,1,1.386-1.6c.258.223,25.862,22.295,37.78,22.295a21.495,21.495,0,1,0,0-42.989c-4.565,0-11.981,3.391-21.448,9.809a1.058,1.058,0,1,1-1.188-1.751c9.959-6.751,17.574-10.175,22.636-10.175a23.612,23.612,0,1,1,0,47.224Z" transform="translate(-693.61 -533.156)" fill="#00efc4"/>
      </g>
    </g>
  </g>
</svg>
