<svg xmlns="http://www.w3.org/2000/svg" width="126" height="121" viewBox="0 0 126 121">
  <g id="Group_327" data-name="Group 327" transform="translate(-1227 -1245)">
    <g id="Group_169" data-name="Group 169" transform="translate(1238.715 1245.406)">
      <g id="Ellipse_43" data-name="Ellipse 43" transform="translate(-11.715 5.594)" fill="none" stroke="#00efc4" stroke-width="3" stroke-dasharray="3 6">
        <circle cx="57.5" cy="57.5" r="57.5" stroke="none"/>
        <circle cx="57.5" cy="57.5" r="56" fill="none"/>
      </g>
      <ellipse id="Ellipse_44" data-name="Ellipse 44" cx="57" cy="57.5" rx="57" ry="57.5" transform="translate(0.285 -0.406)" fill="#f8f8f8"/>
    </g>
    <g id="Group_175" data-name="Group 175" transform="translate(979.244 1063.548)">
      <g id="Group_173" data-name="Group 173" transform="translate(292.756 196.915)">
        <g id="Group_170" data-name="Group 170" transform="translate(0 19.648)">
          <path id="Path_463" data-name="Path 463" d="M315.523,275.46a31.562,31.562,0,0,1-22.466-9.306,1.023,1.023,0,0,1,1.446-1.447,29.725,29.725,0,0,0,42.038-42.038,1.023,1.023,0,0,1,1.447-1.447,31.772,31.772,0,0,1-22.465,54.237Z" transform="translate(-292.756 -220.923)" fill="#00efc4"/>
        </g>
        <g id="Group_171" data-name="Group 171" transform="translate(1.651)">
          <path id="Path_464" data-name="Path 464" d="M304.787,251.452a1.018,1.018,0,0,1-.723-.3A31.771,31.771,0,1,1,349,206.221a1.023,1.023,0,0,1,0,1.447l-23.289,23.288a1.023,1.023,0,1,1-1.447-1.447l22.554-22.552a29.726,29.726,0,0,0-41.3,42.749,1.023,1.023,0,0,1-.723,1.746Z" transform="translate(-294.773 -196.915)" fill="#00efc4"/>
        </g>
        <g id="Group_172" data-name="Group 172" transform="translate(0 43.615)">
          <path id="Path_465" data-name="Path 465" d="M293.779,271.773a1.023,1.023,0,0,1-.723-1.746l19.517-19.517a1.023,1.023,0,0,1,1.447,1.447L294.5,271.473A1.019,1.019,0,0,1,293.779,271.773Z" transform="translate(-292.756 -250.21)" fill="#00efc4"/>
        </g>
      </g>
      <g id="Group_174" data-name="Group 174" transform="translate(314.396 220.858)">
        <path id="Path_466" data-name="Path 466" d="M337.7,245.281a1.017,1.017,0,0,1-.714-.291l-17.477-17.063a1.023,1.023,0,1,1,1.429-1.464l17.477,17.063a1.023,1.023,0,0,1-.714,1.755Z" transform="translate(-319.199 -226.172)" fill="#00efc4"/>
      </g>
    </g>
  </g>
</svg>
