<svg xmlns="http://www.w3.org/2000/svg" width="123" height="121" viewBox="0 0 123 121">
  <g id="Group_181" data-name="Group 181" transform="translate(21.715 0.406)">
    <g id="Ellipse_43" data-name="Ellipse 43" transform="translate(-13.715 5.594)" fill="none" stroke="#00efc4" stroke-width="3" stroke-dasharray="3 6">
      <circle cx="57.5" cy="57.5" r="57.5" stroke="none"/>
      <circle cx="57.5" cy="57.5" r="56" fill="none"/>
    </g>
    <ellipse id="Ellipse_44" data-name="Ellipse 44" cx="57" cy="57.5" rx="57" ry="57.5" transform="translate(-20.715 -0.406)" fill="#f8f8f8"/>
    <g id="Group_184" data-name="Group 184" transform="translate(-487.424 -179.301)">
      <g id="Group_182" data-name="Group 182" transform="translate(488.457 212.129)">
        <path id="Path_470" data-name="Path 470" d="M518.847,263.676c-14.341,0-26.457-11.835-26.457-25.842a1.066,1.066,0,0,1,1.066-1.066h19.6a1.066,1.066,0,1,1,0,2.131H494.548c.594,12.381,11.48,22.645,24.3,22.645,15.632,0,36.617-19.677,40.775-23.733-4.076-4.2-24.983-24.73-43.143-23.454a1.066,1.066,0,0,1-.148-2.126c8.92-.621,19.312,3.392,30.892,11.929A114.261,114.261,0,0,1,561.9,237.114a1.067,1.067,0,0,1-.026,1.466,139.094,139.094,0,0,1-14.512,12.5C536.136,259.438,526.543,263.676,518.847,263.676Z" transform="translate(-492.39 -212.17)" fill="#00efc4"/>
      </g>
      <g id="Group_183" data-name="Group 183" transform="translate(465.709 211.895)">
        <path id="Path_471" data-name="Path 471" d="M509.041,263.636c-8.334,0-18.123-4.241-29.1-12.606a119.416,119.416,0,0,1-13.953-12.515,1.066,1.066,0,0,1-.02-1.42,113.2,113.2,0,0,1,13.96-13.062c11-8.625,20.826-12.684,29.188-12.079,13.27.967,27,10.9,27,25.84C536.114,251.8,523.716,263.636,509.041,263.636Zm-40.814-25.862c3.87,4,23.816,23.731,40.814,23.731,13.519,0,24.941-10.858,24.941-23.71,0-13.7-12.721-22.818-25.019-23.714C492.015,212.853,472.042,233.609,468.227,237.774Z" transform="translate(-465.709 -211.895)" fill="#00efc4"/>
      </g>
    </g>
  </g>
</svg>
