<svg xmlns="http://www.w3.org/2000/svg" width="63.827" height="60.211" viewBox="0 0 63.827 60.211">
  <g id="Group_10" data-name="Group 10" transform="translate(-423.434 -163.734)">
    <path id="Path_1" data-name="Path 1" d="M434.024,170.923V175.1a1.011,1.011,0,0,0,1.012,1.011h42.392a1.011,1.011,0,0,0,.516-1.881q-7.641-4.316-19.55-4.318H435.036A1.012,1.012,0,0,0,434.024,170.923Z" transform="translate(-3.023 -1.764)" fill="#00efc4"/>
    <path id="Path_2" data-name="Path 2" d="M434.024,188.276v4.177a1.012,1.012,0,0,0,1.012,1.011h52.735a1.018,1.018,0,0,0,.957-1.35,23.807,23.807,0,0,0-1.968-4.351,1.015,1.015,0,0,0-.879-.5H435.036A1.012,1.012,0,0,0,434.024,188.276Z" transform="translate(-3.023 -6.717)" fill="#00efc4"/>
    <path id="Path_3" data-name="Path 3" d="M489.229,204.618H435.036a1.011,1.011,0,0,0-1.012,1.011v4.177a1.012,1.012,0,0,0,1.012,1.011h54.145a1.008,1.008,0,0,0,1.01-.927c.06-.823.093-1.659.093-2.512q0-.91-.044-1.788A1.015,1.015,0,0,0,489.229,204.618Z" transform="translate(-3.023 -11.671)" fill="#00efc4"/>
    <path id="Path_4" data-name="Path 4" d="M487.452,221.971H435.036a1.011,1.011,0,0,0-1.012,1.011v4.177a1.012,1.012,0,0,0,1.012,1.011h50.447a1.012,1.012,0,0,0,.872-.492c.246-.416.483-.84.708-1.276a27.211,27.211,0,0,0,1.338-3.058A1.017,1.017,0,0,0,487.452,221.971Z" transform="translate(-3.023 -16.625)" fill="#00efc4"/>
    <path id="Path_5" data-name="Path 5" d="M477.982,241.2l.028-.017a1.011,1.011,0,0,0-.548-1.862H435.036a1.011,1.011,0,0,0-1.012,1.011v4.176a1.012,1.012,0,0,0,1.012,1.012H456.25a73.289,73.289,0,0,0,12.677-1.02A26.334,26.334,0,0,0,477.982,241.2Z" transform="translate(-3.023 -21.579)" fill="#00efc4"/>
    <g id="Group_9" data-name="Group 9" transform="translate(423.434 163.734)">
      <path id="Path_6" data-name="Path 6" d="M423.434,164.745v4.177a1.011,1.011,0,0,0,1.011,1.011H463.97a1.011,1.011,0,0,0,.517-1.881q-7.642-4.316-19.55-4.318H424.445A1.011,1.011,0,0,0,423.434,164.745Z" transform="translate(-423.434 -163.734)" fill="#096fb5"/>
      <path id="Path_7" data-name="Path 7" d="M423.434,182.1v4.177a1.011,1.011,0,0,0,1.011,1.011h49.868a1.018,1.018,0,0,0,.958-1.35,23.811,23.811,0,0,0-1.969-4.352,1.015,1.015,0,0,0-.879-.5H424.445A1.011,1.011,0,0,0,423.434,182.1Z" transform="translate(-423.434 -168.688)" fill="#096fb5"/>
      <path id="Path_8" data-name="Path 8" d="M475.771,198.44H424.445a1.011,1.011,0,0,0-1.011,1.011v4.177a1.011,1.011,0,0,0,1.011,1.011h51.278a1.008,1.008,0,0,0,1.01-.927c.06-.823.093-1.659.093-2.512,0-.607-.016-1.2-.044-1.788A1.016,1.016,0,0,0,475.771,198.44Z" transform="translate(-423.434 -173.641)" fill="#096fb5"/>
      <path id="Path_9" data-name="Path 9" d="M473.994,215.793H424.445a1.011,1.011,0,0,0-1.011,1.011v4.177a1.011,1.011,0,0,0,1.011,1.011h47.579a1.012,1.012,0,0,0,.872-.492c.246-.416.483-.84.708-1.276a27.21,27.21,0,0,0,1.338-3.058A1.017,1.017,0,0,0,473.994,215.793Z" transform="translate(-423.434 -178.595)" fill="#096fb5"/>
      <path id="Path_10" data-name="Path 10" d="M464.524,235.025l.028-.017a1.011,1.011,0,0,0-.548-1.862H424.445a1.011,1.011,0,0,0-1.011,1.011v4.176a1.011,1.011,0,0,0,1.011,1.012h18.347a73.292,73.292,0,0,0,12.677-1.02A26.334,26.334,0,0,0,464.524,235.025Z" transform="translate(-423.434 -183.549)" fill="#096fb5"/>
    </g>
  </g>
</svg>
